<svg width="26" height="15" viewBox="0 0 26 15" fill="none" xmlns="http://www.w3.org/2000/svg">
<path d="M12.9989 14.4712C12.2224 14.4712 11.5871 13.8359 11.5871 13.0594C11.5871 7.6241 7.14003 3.17705 1.70473 3.17705C0.928263 3.17705 0.292969 2.54175 0.292969 1.76528C0.292969 0.98881 0.928263 0.353516 1.70473 0.353516C8.72826 0.353516 14.4106 6.03587 14.4106 13.0594C14.4106 13.8359 13.7753 14.4712 12.9989 14.4712Z" fill="#1F2041" fill-opacity="0.25"/>
<path d="M25.7068 1.76528C25.7068 2.54175 25.0715 3.17704 24.295 3.17704C20.9421 3.17704 17.9421 4.87116 16.1774 7.44763C15.7892 6.4594 15.3303 5.54175 14.7656 4.69469C17.095 2.01234 20.5186 0.353516 24.295 0.353516C25.0715 0.353516 25.7068 0.98881 25.7068 1.76528Z" fill="#1F2041" fill-opacity="0.25"/>
</svg>
